<?xml version="1.0" encoding="utf-8"?>
<!-- Generator: Adobe Illustrator 19.0.0, SVG Export Plug-In . SVG Version: 6.00 Build 0)  -->
<svg version="1.1" id="Layer_1" xmlns="http://www.w3.org/2000/svg" xmlns:xlink="http://www.w3.org/1999/xlink" x="0px" y="0px"
	 viewBox="0 0 500 200" style="enable-background:new 0 0 500 200;" xml:space="preserve">
<style type="text/css">
	.st0{fill:#3F5C9D;}
	.st1{fill:#A4B3CE;}
	.st2{fill:#E8EBF1;}
	.st3{fill:#A7B6D2;}
	.st4{fill:#FFFFFF;}
	.st5{font-family:'NirmalaUI-Bold';}
	.st6{font-size:74.8712px;}
</style>
<g>
	<path id="XMLID_3914_" class="st0" d="M420.2,174.8H79.8C38.4,174.8,5,141.3,5,100l0,0c0-41.3,33.4-74.8,74.8-74.8h340.4
		c41.3,0,74.8,33.4,74.8,74.8l0,0C495,141.3,461.6,174.8,420.2,174.8z"/>
	<path id="XMLID_3918_" class="st1" d="M82.7,103.8c-0.1-0.4-0.1-0.8-0.2-1.3c0.2-2.5-0.2-5.1,1.1-7.4c0.4,0.3,0.8,0.7,1.2,1.1
		c2.6,2.2,0.4,5.1,1.1,7.6c-0.3,0-0.7,0-1.1,0C84.1,103.8,83.5,103.8,82.7,103.8z"/>
	<path id="XMLID_3917_" class="st2" d="M86.4,97.6c-0.5,1.4-1.2,2.7-1.7,4.2c-0.7-1.5-4.9-3,0-4.4C85.3,97.4,85.8,97.5,86.4,97.6z"
		/>
	<path id="XMLID_3916_" class="st3" d="M82.8,95.1c0.7,0,1.4,0,2.1,0c0.3,1.1,0.7,2.2,1.1,3.3c-1.2,0.7,0,1.5,0.1,2.1
		c-0.4,0.4-0.7,0.7-1.2,1.2c-0.9,0.4-1.1,1.3-1.1,2.1C81.7,101.2,83.3,98.1,82.8,95.1z"/>
	<path id="XMLID_3915_" class="st4" d="M74.6,97.8V150c0,0.7,0.6,1.4,1.4,1.4h19.4c0.7,0,1.4-0.6,1.4-1.4v-53h14
		c0.7,0,1.3-0.5,1.4-1.3l1.4-16c0.1-0.8-0.5-1.5-1.4-1.5H96.8V66.9c0-2.6,2.1-4.9,4.9-4.9h10.9c0.7,0,1.4-0.6,1.4-1.4V44.7
		c0-0.7-0.6-1.4-1.4-1.4H94.1c-10.8,0-19.5,8.8-19.5,19.5v15.4h-9.7c-0.7,0-1.4,0.6-1.4,1.4v16c0,0.7,0.6,1.4,1.4,1.4h9.7
		C74.6,97,74.6,97.8,74.6,97.8z"/>
	<text id="XMLID_1_" transform="matrix(1.0226 0 0 1 179.5869 128.3115)" class="st4 st5 st6">Share</text>
</g>
</svg>
