<?xml version="1.0" encoding="utf-8"?>
<!-- Generator: Adobe Illustrator 19.0.0, SVG Export Plug-In . SVG Version: 6.00 Build 0)  -->
<svg version="1.1" id="Layer_1" xmlns="http://www.w3.org/2000/svg" xmlns:xlink="http://www.w3.org/1999/xlink" x="0px" y="0px"
	 viewBox="0 0 500 200" style="enable-background:new 0 0 500 200;" xml:space="preserve">
<style type="text/css">
	.st0{fill:url(#XMLID_12_);}
	.st1{fill:#FFFFFF;}
	.st2{font-family:'NirmalaUI-Bold';}
	.st3{font-size:70.9901px;}
</style>
<linearGradient id="XMLID_12_" gradientUnits="userSpaceOnUse" x1="17.6667" y1="100" x2="482.3333" y2="100">
	<stop  offset="1.104800e-003" style="stop-color:#FAE08A"/>
	<stop  offset="0.2094" style="stop-color:#FCBB46"/>
	<stop  offset="0.3765" style="stop-color:#F05475"/>
	<stop  offset="0.5238" style="stop-color:#D53992"/>
	<stop  offset="0.7394" style="stop-color:#7E50A0"/>
	<stop  offset="1" style="stop-color:#5C5DA9"/>
</linearGradient>
<path id="XMLID_3914_" class="st0" d="M411.4,170.9H88.6c-39.2,0-70.9-31.7-70.9-70.9v0c0-39.2,31.7-70.9,70.9-70.9h322.8
	c39.2,0,70.9,31.7,70.9,70.9v0C482.3,139.2,450.6,170.9,411.4,170.9z"/>
<text id="XMLID_1_" transform="matrix(1.0226 0 0 1 183.2372 126.8448)" class="st1 st2 st3">Share</text>
<g id="XMLID_3_">
	<circle id="XMLID_11_" class="st1" cx="131.8" cy="74.6" r="5.6"/>
	<path id="XMLID_8_" class="st1" d="M106.8,76.2c-13,0-23.6,10.6-23.6,23.6s10.6,23.6,23.6,23.6s23.6-10.6,23.6-23.6
		S119.8,76.2,106.8,76.2z M106.8,115c-8.3,0-15.1-6.8-15.1-15.1c0-8.3,6.8-15.1,15.1-15.1s15.1,6.8,15.1,15.1
		C121.9,108.2,115.1,115,106.8,115z"/>
	<g id="XMLID_4_">
		<path id="XMLID_5_" class="st1" d="M125.5,147.8H87.2c-15.9,0-28.8-12.9-28.8-28.8V80.7c0-15.9,12.9-28.8,28.8-28.8h38.3
			c15.9,0,28.8,12.9,28.8,28.8V119C154.3,134.9,141.4,147.8,125.5,147.8z M87.2,60.9c-10.9,0-19.8,8.9-19.8,19.8V119
			c0,10.9,8.9,19.8,19.8,19.8h38.3c10.9,0,19.8-8.9,19.8-19.8V80.7c0-10.9-8.9-19.8-19.8-19.8H87.2z"/>
	</g>
</g>
</svg>
