<?xml version="1.0" encoding="utf-8"?>
<!-- Generator: Adobe Illustrator 19.0.0, SVG Export Plug-In . SVG Version: 6.00 Build 0)  -->
<svg version="1.1" id="Layer_1" xmlns="http://www.w3.org/2000/svg" xmlns:xlink="http://www.w3.org/1999/xlink" x="0px" y="0px"
	 viewBox="0 0 500 200" style="enable-background:new 0 0 500 200;" xml:space="preserve">
<style type="text/css">
	.st0{fill:#47C8F5;}
	.st1{fill:#FFFFFF;}
	.st2{font-family:'NirmalaUI-Bold';}
	.st3{font-size:70.9901px;}
	.st4{fill:#F4F8F9;}
	.st5{fill-rule:evenodd;clip-rule:evenodd;fill:#F4F8F9;}
</style>
<path id="XMLID_3914_" class="st0" d="M411.4,170.9H88.6c-39.2,0-70.9-31.7-70.9-70.9v0c0-39.2,31.7-70.9,70.9-70.9h322.8
	c39.2,0,70.9,31.7,70.9,70.9v0C482.3,139.2,450.6,170.9,411.4,170.9z"/>
<text id="XMLID_1_" transform="matrix(1.0226 0 0 1 183.2372 126.8448)" class="st1 st2 st3">Share</text>
<g id="XMLID_12_">
	<path id="XMLID_17_" class="st4" d="M158.8,68.1c-3.2,1.5-6.7,2.4-10.2,2.9c1.7-0.3,4.2-3.3,5.1-4.5c1.5-1.9,2.8-4,3.5-6.3
		c0.1-0.2,0.2-0.4,0-0.5c-0.2-0.1-0.4,0-0.5,0c-3.9,2.1-8,3.6-12.3,4.7c-0.4,0.1-0.6,0-0.8-0.2c-0.4-0.4-0.7-0.8-1.1-1.1
		c-1.8-1.5-3.8-2.7-5.9-3.6c-2.9-1.2-6-1.7-9.1-1.5c-3,0.2-6,1-8.6,2.4c-2.7,1.4-5.1,3.3-7,5.7c-2,2.4-3.4,5.3-4.2,8.3
		c-0.7,2.9-0.7,5.8-0.2,8.8c0.1,0.5,0,0.6-0.4,0.5c-16.8-2.5-30.8-8.5-42.1-21.4c-0.5-0.6-0.8-0.6-1.2,0c-5,7.4-2.6,19.4,3.6,25.2
		c0.8,0.8,1.7,1.6,2.6,2.3c-0.3,0.1-4.5-0.4-8.1-2.3c-0.5-0.3-0.7-0.1-0.8,0.4c0,0.8,0,1.5,0.1,2.4c1,7.5,6.2,14.5,13.3,17.2
		c0.8,0.4,1.8,0.7,2.7,0.8c-1.6,0.4-3.3,0.6-8,0.2c-0.6-0.1-0.8,0.2-0.6,0.7c3.5,9.6,11.1,12.4,16.8,14c0.8,0.1,1.5,0.1,2.3,0.3
		c0,0.1-0.1,0.1-0.1,0.1c-1.9,2.9-8.4,5-11.4,6.1c-5.5,1.9-11.5,2.8-17.4,2.2c-0.9-0.1-1.1-0.1-1.4,0c-0.3,0.2,0,0.4,0.3,0.6
		c1.2,0.8,2.4,1.5,3.6,2.1c3.7,2,7.6,3.5,11.6,4.6c20.9,5.8,44.4,1.5,60.1-14c12.3-12.2,16.6-29.1,16.6-46c0-0.7,0.8-1,1.2-1.4
		c3.2-2.4,5.6-5.3,7.9-8.5c0.5-0.7,0.3-1.4,0.3-1.6c0,0,0-0.1,0-0.1C159,67.8,159.2,67.9,158.8,68.1z"/>
	<path id="XMLID_16_" class="st5" d="M87.6,141.8C96.2,141.8,88,141.8,87.6,141.8C88.7,141.8,87.5,141.8,87.6,141.8z"/>
	<path id="XMLID_15_" class="st5" d="M87.6,141.8C87.4,141.8,85.9,141.8,87.6,141.8C87.6,141.8,87.3,141.8,87.6,141.8z"/>
	<path id="XMLID_14_" class="st5" d="M91,141.9C91,141.7,92.8,141.9,91,141.9C91,141.8,91.2,141.9,91,141.9z"/>
	<path id="XMLID_13_" class="st5" d="M127.1,58.1c-0.1,0.1-0.3,0.1-0.4,0C126.9,58.1,127,58.1,127.1,58.1z"/>
</g>
</svg>
