<?xml version="1.0" encoding="utf-8"?>
<!-- Generator: Adobe Illustrator 19.0.0, SVG Export Plug-In . SVG Version: 6.00 Build 0)  -->
<svg version="1.1" id="Layer_1" xmlns="http://www.w3.org/2000/svg" xmlns:xlink="http://www.w3.org/1999/xlink" x="0px" y="0px"
	 viewBox="0 0 500 200" style="enable-background:new 0 0 500 200;" xml:space="preserve">
<style type="text/css">
	.st0{fill:#3E5C9C;}
	.st1{fill:#A3B2CE;}
	.st2{fill:#E8EBF2;}
	.st3{fill:#A7B6D2;}
	.st4{fill-rule:evenodd;clip-rule:evenodd;fill:#FFFFFF;}
	.st5{fill:#FFFFFF;}
	.st6{font-family:'NirmalaUI-Bold';}
	.st7{font-size:70.9901px;}
</style>
<path id="XMLID_3914_" class="st0" d="M411.4,170.9H88.6c-39.2,0-70.9-31.7-70.9-70.9v0c0-39.2,31.7-70.9,70.9-70.9h322.8
	c39.2,0,70.9,31.7,70.9,70.9v0C482.3,139.2,450.6,170.9,411.4,170.9z"/>
<path id="XMLID_3918_" class="st1" d="M91.4,103.6c-0.1-0.4-0.1-0.8-0.2-1.2c0.2-2.4-0.2-4.8,1-7c0.4,0.3,0.8,0.7,1.1,1
	c2.5,2.1,0.4,4.8,1,7.2c-0.3,0-0.7,0-1,0C92.7,103.6,92.1,103.6,91.4,103.6z"/>
<path id="XMLID_3917_" class="st2" d="M94.9,97.7c-0.5,1.3-1.1,2.6-1.6,4c-0.7-1.4-4.6-2.8,0-4.2C93.8,97.5,94.3,97.6,94.9,97.7z"/>
<path id="XMLID_3916_" class="st3" d="M91.5,95.4c0.7,0,1.3,0,2,0c0.3,1,0.7,2.1,1,3.1c-1.1,0.7,0,1.4,0.1,2
	c-0.4,0.4-0.7,0.7-1.1,1.1c-0.9,0.4-1,1.2-1,2C90.4,101.1,91.9,98.2,91.5,95.4z"/>
<path id="XMLID_3915_" class="st4" d="M83.7,97.9v49.5c0,0.7,0.6,1.3,1.3,1.3h18.4c0.7,0,1.3-0.6,1.3-1.3V97.1H118
	c0.7,0,1.2-0.5,1.3-1.2l1.3-15.2c0.1-0.8-0.5-1.4-1.3-1.4h-14.6V68.6c0-2.5,2-4.6,4.6-4.6h10.3c0.7,0,1.3-0.6,1.3-1.3V47.6
	c0-0.7-0.6-1.3-1.3-1.3h-17.4c-10.2,0-18.5,8.3-18.5,18.5v14.6h-9.2c-0.7,0-1.3,0.6-1.3,1.3v15.2c0,0.7,0.6,1.3,1.3,1.3h9.2V97.9z"
	/>
<text id="XMLID_1_" transform="matrix(1.0226 0 0 1 183.2372 126.8448)" class="st5 st6 st7">Share</text>
</svg>
